<?xml version="1.0" standalone="no"?>
<!DOCTYPE svg PUBLIC "-//W3C//DTD SVG 20010904//EN"
 "http://www.w3.org/TR/2001/REC-SVG-20010904/DTD/svg10.dtd">
<svg version="1.0" xmlns="http://www.w3.org/2000/svg"
 width="1276.000000pt" height="1280.000000pt" viewBox="0 0 1276.000000 1280.000000"
 preserveAspectRatio="xMidYMid meet">
<metadata>
Created by potrace 1.15, written by Peter Selinger 2001-2017
</metadata>
<g transform="translate(0.000000,1280.000000) scale(0.100000,-0.100000)"
fill="#000000" stroke="none">
<path d="M603 12744 c-40 -42 -71 -93 -127 -207 -250 -511 -492 -1387 -474
-1721 9 -180 52 -180 333 -4 249 156 444 233 645 252 181 18 343 104 532 283
110 103 199 166 305 214 88 40 202 69 270 69 136 0 279 39 327 89 37 38 36 71
-3 118 -172 209 -1268 841 -1636 944 -104 29 -112 27 -172 -37z"/>
<path d="M1983 11350 c-111 -24 -262 -114 -393 -236 -111 -103 -152 -134 -230
-177 -124 -67 -239 -83 -364 -51 -40 11 -85 15 -131 12 -285 -19 -444 -351
-554 -1158 -29 -213 -34 -281 -22 -313 25 -64 62 -50 220 81 147 122 212 164
309 199 100 37 191 41 321 13 178 -37 277 -9 337 97 57 100 68 113 132 145 60
30 65 31 145 23 45 -5 123 -9 172 -9 84 -1 94 1 155 34 87 46 179 139 280 285
47 66 114 149 150 186 120 120 212 141 432 95 204 -42 303 -32 338 34 15 27
-3 92 -40 145 -125 178 -554 456 -867 562 -96 32 -121 36 -228 39 -66 2 -139
-1 -162 -6z"/>
<path d="M2844 10355 c-82 -43 -223 -144 -427 -307 -176 -141 -288 -216 -390
-262 -97 -44 -131 -50 -184 -30 -66 26 -123 6 -193 -67 -96 -99 -199 -133
-460 -150 -227 -15 -292 -26 -363 -63 -70 -36 -115 -89 -145 -168 -34 -91
-193 -872 -199 -978 -11 -202 52 -276 183 -216 44 20 86 55 176 146 106 108
127 124 210 164 118 57 185 74 328 86 68 5 152 20 204 35 110 32 250 103 314
159 166 147 296 204 522 231 114 13 144 20 208 51 93 45 155 106 208 204 56
105 99 131 226 138 62 3 124 -1 188 -12 212 -38 361 -30 475 23 157 73 215
191 155 316 -49 103 -330 344 -656 562 -119 80 -250 155 -290 167 -14 4 -44
-5 -90 -29z"/>
<path d="M4355 9473 c-229 -51 -414 -222 -470 -433 -43 -161 14 -338 151 -475
187 -185 478 -242 614 -119 41 37 55 68 65 149 4 28 18 67 31 87 39 61 153
108 264 108 141 0 293 32 390 80 71 36 100 68 107 119 5 36 2 44 -25 70 -34
31 -97 51 -162 51 -127 0 -326 92 -488 226 -79 65 -186 120 -261 134 -53 10
-178 12 -216 3z"/>
<path d="M3120 9117 c-55 -18 -123 -94 -173 -194 -49 -97 -96 -147 -174 -186
-58 -30 -165 -57 -220 -57 -65 0 -211 -29 -305 -60 -112 -38 -230 -97 -332
-168 -94 -64 -231 -131 -331 -161 -38 -11 -128 -27 -200 -35 -71 -8 -152 -22
-180 -31 -258 -87 -470 -361 -584 -755 -33 -116 -84 -381 -101 -534 -22 -188
13 -262 113 -235 61 16 131 58 285 174 177 132 234 168 357 225 171 81 296
114 477 130 62 5 139 16 171 25 137 36 244 114 299 217 22 41 49 73 84 100 79
59 137 77 287 89 331 25 622 150 822 353 133 134 173 235 161 408 -16 256 -90
472 -203 598 -80 89 -171 124 -253 97z"/>
<path d="M5070 8394 c-77 -15 -236 -72 -369 -134 -84 -38 -182 -79 -219 -90
-72 -23 -167 -27 -222 -10 -52 15 -152 13 -177 -5 -31 -22 -37 -66 -18 -126
38 -114 196 -222 400 -274 188 -48 435 -189 725 -414 69 -54 208 -162 310
-242 235 -185 328 -249 420 -293 146 -70 182 -42 199 156 23 277 -51 653 -181
913 -93 185 -236 353 -371 433 -107 64 -186 85 -337 88 -74 1 -146 0 -160 -2z"/>
<path d="M4105 7731 c-139 -34 -225 -157 -225 -320 0 -93 19 -162 71 -259 34
-64 36 -73 21 -78 -51 -15 -127 -62 -157 -96 -63 -74 -131 -226 -215 -482 -54
-164 -56 -193 -13 -219 54 -31 210 -83 338 -112 236 -53 460 -66 750 -44 252
19 360 55 454 150 100 102 119 180 66 277 -16 29 -48 71 -73 93 -24 23 -42 42
-40 43 2 2 24 9 51 16 155 42 218 167 172 343 -22 85 -48 129 -123 208 -210
223 -543 417 -813 474 -73 16 -212 18 -264 6z"/>
<path d="M2614 7399 c-125 -15 -218 -80 -267 -187 -19 -41 -21 -65 -22 -187 0
-124 4 -152 28 -240 95 -334 226 -495 436 -535 71 -13 297 -13 361 1 102 22
143 89 122 203 -15 81 -59 223 -124 401 -109 301 -217 460 -352 520 -63 28
-104 34 -182 24z"/>
<path d="M6945 7036 c-165 -41 -235 -151 -201 -317 29 -143 160 -357 259 -425
108 -75 216 -44 316 89 51 69 152 253 190 349 63 156 34 204 -159 262 -103 31
-246 56 -309 55 -25 0 -68 -6 -96 -13z"/>
<path d="M6283 6665 c-81 -22 -205 -89 -353 -188 -259 -173 -390 -281 -427
-351 -42 -78 -11 -179 107 -357 216 -324 320 -360 580 -202 330 200 503 476
462 738 -23 150 -98 296 -177 345 -45 28 -125 34 -192 15z"/>
<path d="M7686 6670 c-45 -9 -71 -35 -86 -88 -14 -53 -12 -72 13 -117 77 -137
440 -266 1785 -634 807 -222 1097 -273 1194 -213 40 25 58 63 58 125 0 78 -77
156 -224 227 -89 42 -120 52 -536 169 -157 44 -474 137 -705 206 -811 244
-1032 298 -1320 325 -121 11 -123 11 -179 0z"/>
<path d="M11722 6419 c-221 -21 -414 -90 -588 -210 -191 -132 -385 -423 -450
-676 -32 -121 -42 -311 -25 -434 31 -218 100 -419 246 -714 159 -324 372 -666
719 -1159 177 -253 236 -346 314 -502 143 -285 196 -491 196 -764 0 -177 -19
-284 -76 -436 -78 -208 -156 -313 -461 -620 l-238 -241 -742 -7 c-408 -4
-1273 -11 -1922 -16 -3108 -26 -3686 -31 -4440 -40 -1894 -24 -2462 -51 -2740
-132 -135 -39 -192 -85 -250 -202 -42 -83 -43 -109 -7 -146 54 -54 201 -80
577 -102 502 -30 5873 -1 7890 42 1406 30 1827 77 2080 232 264 162 589 543
765 898 284 571 250 1083 -120 1815 -115 228 -254 461 -476 798 -387 587 -635
1037 -708 1286 -22 74 -20 191 3 283 48 188 152 300 338 365 71 25 90 27 223
27 119 0 169 -5 280 -28 151 -32 278 -38 327 -17 18 7 43 30 55 50 21 32 23
48 23 161 0 118 -2 129 -29 185 -106 216 -412 338 -764 304z"/>
<path d="M7025 5820 c-135 -35 -273 -100 -425 -200 -115 -76 -172 -121 -268
-214 -122 -118 -193 -219 -217 -311 -22 -85 -3 -136 116 -310 137 -202 295
-389 597 -708 470 -496 617 -600 919 -654 84 -15 163 -18 568 -17 423 0 488 2
653 22 271 33 480 80 577 130 58 29 147 107 172 150 35 59 29 141 -16 230 -39
78 -190 303 -308 460 -104 138 -356 395 -528 538 -467 388 -1018 719 -1410
848 -180 59 -305 69 -430 36z"/>
<path d="M1995 5810 c-501 -18 -771 -64 -841 -141 -40 -44 -6 -148 66 -201 75
-55 677 -85 1915 -94 809 -7 1724 6 1974 27 305 25 380 72 276 173 -141 134
-362 186 -980 227 -199 13 -2093 20 -2410 9z"/>
<path d="M1560 5023 c0 -370 22 -560 91 -802 336 -1172 1564 -2244 3099 -2705
450 -135 955 -190 1865 -203 455 -6 624 1 866 38 696 105 1399 390 2189 887
464 292 1053 752 1433 1122 l129 125 -277 338 c-152 185 -280 337 -284 337 -3
0 -139 -107 -301 -237 -554 -444 -662 -517 -902 -607 -271 -101 -656 -151
-1168 -151 -332 0 -396 8 -588 72 -180 59 -515 240 -697 375 -267 198 -556
486 -761 758 -82 109 -124 171 -421 630 l-178 275 -2048 3 -2047 2 0 -257z"/>
<path d="M3745 1561 c-186 -85 -459 -423 -473 -584 -4 -47 -1 -56 25 -84 122
-131 539 -6 621 186 68 157 99 357 65 421 -40 76 -146 104 -238 61z"/>
<path d="M9112 1484 c-74 -38 -99 -129 -67 -240 77 -264 334 -434 601 -396
124 17 137 49 74 173 -54 107 -161 260 -231 329 -122 122 -286 180 -377 134z"/>
</g>
</svg>
